<svg xmlns="http://www.w3.org/2000/svg" viewBox="0 0 183.53 183.64">
  <g transform="translate(-12.68,-49.578942)">
    <path fill="#50c878" d="m 99.350507,233.15782 c -4.46107,-0.24847 -9.03938,-0.84431 -13.51231,-1.75855 -1.41383,-0.28898 -4.56405,-1.02866 -5.298,-1.244 -5.767215,-1.69199 -9.238877,-2.92074 -13.096608,-4.6354 -6.049417,-2.68879 -10.696913,-5.35058 -16.50411,-9.45253 -4.306322,-3.04179 -9.339481,-7.43841 -12.983156,-11.34117 -1.135738,-1.2165 -3.664802,-4.07183 -4.174568,-4.71313 -0.187142,-0.23541 -0.626344,-0.78046 -0.97603,-1.21123 -1.448926,-1.78489 -3.715717,-4.90628 -5.51046,-7.58795 -1.03136,-1.54106 -2.694998,-4.35387 -4.141441,-7.0022 -0.835416,-1.52959 -3.078811,-6.19755 -3.078811,-6.40627 0,-0.0229 -0.127604,-0.31815 -0.283554,-0.65603 -0.858272,-1.85954 -2.555763,-6.62128 -3.407208,-9.55777 -0.217038,-0.74852 -0.435646,-1.49219 -0.485795,-1.65257 -0.235222,-0.75233 -1.185161,-4.7092 -1.411935,-5.88127 -0.139651,-0.7218 -0.314016,-1.61857 -0.387471,-1.99282 -0.354996,-1.80876 -0.879859,-5.45054 -1.022752,-7.0964 -0.0557,-0.6416 -0.119659,-1.25402 -0.142131,-1.36097 -0.02247,-0.10701 -0.07095,-0.82871 -0.107758,-1.60397 -0.03679,-0.77526 -0.08379,-1.4391 -0.104418,-1.47521 -0.05866,-0.10264 -0.05463,-8.53354 0.0044,-9.17778 0.02897,-0.31619 0.07715,-1.07795 0.10706,-1.6928 0.382648,-7.86326 2.551321,-17.98483 5.571664,-26.00393 1.324662,-3.51702 2.408703,-6.00007 4.064746,-9.31052 2.946569,-5.890235 5.564191,-10.004025 10.250941,-16.110138 3.584997,-4.670686 9.366446,-10.501705 14.038602,-14.158933 3.743456,-2.930277 4.488097,-3.476908 6.901978,-5.066699 3.821704,-2.516992 4.945281,-3.184754 8.748971,-5.199656 3.727388,-1.974484 9.404744,-4.375376 13.463706,-5.693653 6.548738,-2.126908 13.103608,-3.474755 20.159928,-4.145393 0.86198,-0.08193 1.80899,-0.173576 2.10444,-0.203672 1.39263,-0.141856 4.643183,-0.214726 7.846423,-0.17591 1.93797,0.02348 3.57842,0.06002 3.64541,0.08122 0.067,0.02118 0.55925,0.06531 1.09392,0.09808 3.18481,0.195129 7.75894,0.78374 11.27647,1.451089 4.09969,0.777798 10.19445,2.494733 14.1928,3.998215 4.06556,1.52876 9.37989,4.005081 12.83183,5.979265 0.58813,0.336353 1.3318,0.759011 1.65259,0.939243 1.34441,0.755326 3.82028,2.344663 5.88126,3.77536 7.2022,4.999664 13.5793,10.936407 19.21294,17.886253 4.72177,5.824919 8.90962,12.619256 12.0422,19.537159 1.85257,4.09114 2.54937,5.8894 3.9174,10.10993 0.9967,3.0749 1.16144,3.65107 1.87595,6.56174 0.70464,2.87042 0.79191,3.27814 1.15486,5.39521 0.63051,3.6778 0.98053,6.40956 1.27054,9.91551 0.28909,3.49519 0.2052,11.31512 -0.15793,14.72747 -0.0769,0.7218 -0.16496,1.55294 -0.19585,1.84701 -0.031,0.29406 -0.0726,0.64402 -0.0927,0.77768 -0.0201,0.13361 -0.10426,0.76798 -0.18703,1.40956 -0.19562,1.51599 -0.94089,5.67797 -1.30553,7.29082 -1.75648,7.76912 -4.77114,15.93342 -8.34831,22.60894 -0.3603,0.67239 -0.72552,1.3286 -0.8116,1.45826 -0.0861,0.12971 -0.29965,0.52005 -0.4746,0.86751 -0.72635,1.44267 -3.99436,6.59385 -5.33785,8.4138 -0.27419,0.37143 -0.57443,0.78328 -0.66717,0.91523 -0.32874,0.46766 -1.61908,2.1911 -1.67631,2.23898 -0.0319,0.0268 -0.31582,0.37668 -0.63077,0.77768 -0.71821,0.91442 -1.92093,2.35216 -2.41139,2.8826 -0.2053,0.22205 -0.46856,0.5322 -0.58503,0.68922 -0.54871,0.73986 -5.12177,5.46165 -6.38554,6.59323 -2.88106,2.57972 -4.65058,4.06967 -6.46362,5.44237 -0.69506,0.52625 -1.28562,0.98329 -1.31236,1.01562 -0.10717,0.12971 -3.36058,2.37893 -4.95775,3.42753 -1.43472,0.94197 -4.15114,2.55014 -6.3187,3.74083 -1.0988,0.6036 -4.45905,2.25862 -5.44381,2.68123 -0.5614,0.24093 -1.48004,0.64196 -2.04143,0.89118 -5.26153,2.33578 -12.68903,4.58555 -18.90753,5.72706 -3.72136,0.68311 -6.01534,0.99269 -9.47807,1.2791 -2.13811,0.17684 -10.19246,0.26542 -12.491603,0.13733 z m 25.286853,-39.97595 c 0.59742,-0.20373 1.81307,-0.98838 2.23856,-1.4449 0.8456,-0.90725 1.30965,-2.09465 1.30621,-3.34223 -0.002,-0.75061 -0.11739,-1.31065 -0.69094,-3.35379 -0.50865,-1.81223 -0.53052,-1.89135 -1.75973,-6.3673 -0.16149,-0.58813 -0.42503,-1.55053 -0.58562,-2.13865 -0.16052,-0.58813 -0.33037,-1.17867 -0.37733,-1.31234 -0.047,-0.13361 -0.24342,-0.83359 -0.43659,-1.55539 -0.19319,-0.72178 -0.41269,-1.53106 -0.48778,-1.7984 -0.0751,-0.26732 -0.2202,-0.79226 -0.32246,-1.16653 -0.10231,-0.37426 -0.3631,-1.31477 -0.5796,-2.09004 -0.55616,-1.99142 -1.02295,-3.68165 -1.32896,-4.81194 -0.14479,-0.53465 -0.50421,-1.82513 -0.7988,-2.86772 -0.29459,-1.04257 -0.65682,-2.35493 -0.80495,-2.91632 -0.32422,-1.22864 -1.04293,-3.87234 -1.50639,-5.54103 -0.18562,-0.66832 -0.56082,-2.02441 -0.8338,-3.01354 -0.27298,-0.98911 -0.71487,-2.58581 -0.982,-3.54819 -0.53545,-1.92912 -0.56198,-2.02452 -1.20324,-4.32589 -0.70814,-2.54134 -0.70826,-3.98936 -4.7e-4,-5.58979 0.48822,-1.10395 1.2907,-1.96101 2.77457,-2.96324 3.00632,-2.03055 5.45308,-4.52889 7.34854,-7.5035 2.38867,-3.74859 3.88555,-8.73979 3.8725,-12.91234 -0.0212,-6.76549 -2.57876,-13.131444 -7.17896,-17.868802 -0.53553,-0.551489 -1.28131,-1.25131 -1.65729,-1.555156 -0.37597,-0.303845 -0.70547,-0.577477 -0.73221,-0.608067 -0.0267,-0.0306 -0.30302,-0.241992 -0.61398,-0.469778 -3.20915,-2.350798 -6.1989,-3.642822 -10.46806,-4.523803 -4.71774,-0.973546 -10.546483,-0.179952 -15.213523,2.071346 -1.89401,0.913642 -4.15876,2.40377 -5.5402,3.645274 -0.3747,0.336753 -0.84267,0.752963 -1.03993,0.924909 -0.46357,0.404098 -1.82666,1.982225 -2.57062,2.976147 -1.97453,2.637992 -2.97419,4.66137 -4.08236,8.26293 -0.71893,2.33656 -1.08079,5.69571 -0.90059,8.36014 0.20448,3.02332 0.75246,5.30804 1.98185,8.26293 1.22392,2.94179 3.19358,5.76306 5.74463,8.22841 1.0772,1.04101 1.72873,1.56198 3.32779,2.66095 0.76575,0.52625 1.57358,1.16439 1.79519,1.41804 1.03852,1.18874 1.62449,2.65962 1.62449,4.0777 0,0.90432 -0.10831,1.4858 -0.61511,3.30012 -0.18665,0.66832 -0.45277,1.63072 -0.5914,2.13865 -0.45838,1.6796 -0.57102,2.08433 -0.74402,2.67329 -0.0942,0.32081 -0.39856,1.43629 -0.67627,2.47888 -0.27771,1.04259 -0.75719,2.79238 -1.06548,3.88844 -0.4932,1.75341 -1.12852,4.04437 -1.36139,4.90916 -0.0431,0.16035 -0.25359,0.92593 -0.46751,1.70118 -0.21394,0.77525 -0.63885,2.32821 -0.94424,3.45099 -0.30539,1.12278 -0.89619,3.24442 -1.3129,4.71474 -0.4167,1.47031 -0.94211,3.37321 -1.16757,4.22867 -0.22545,0.85545 -0.64956,2.38653 -0.94245,3.40238 -0.84165,2.91917 -0.90326,3.13861 -1.24176,4.42309 -0.42017,1.59434 -0.95422,3.56175 -1.21384,4.47171 -0.11447,0.401 -0.29469,1.05716 -0.40061,1.45817 -0.10588,0.40098 -0.2663,0.9478 -0.35635,1.21513 -0.21923,0.65073 -0.21852,2.14705 0.001,2.86773 0.50312,1.64908 2.23955,3.2135 3.87108,3.48758 0.30815,0.0517 8.62542,0.0827 19.970293,0.0743 18.22764,-0.013 19.47329,-0.025 19.94024,-0.18429 z"/>
  </g>
</svg>
